<svg id="Capa_1" data-name="Capa 1" xmlns="http://www.w3.org/2000/svg" viewBox="0 0 570.24 177.12"><defs><style>.cls-1{fill:#f9f9f9;}</style></defs><path class="cls-1" d="M148.52,82.05a4.26,4.26,0,1,0-8.47,1,42.29,42.29,0,0,1,.33,5.31A42.87,42.87,0,1,1,87.89,46.55a43.57,43.57,0,0,1,9.62-1.08c1.1,0,2.19.05,3.28.13.74,0,1.48.13,2.21.22a6.61,6.61,0,0,1,5.85,5.86,5.43,5.43,0,0,1,0,.57q0,.31,0,.63a6.1,6.1,0,0,1-7,5.33,29,29,0,0,0-3.51-.3h-.86A30.43,30.43,0,0,0,67.12,90.21,30.44,30.44,0,0,0,113,114.58h0l0,0a30.61,30.61,0,0,0,5.92-4.56,18.64,18.64,0,0,1-3.44,2.33l1-3-1.18.5,6-8.2-10.78,6.25a26.05,26.05,0,0,0,1.28-3.36l-.42.34a20.63,20.63,0,0,1-2.41,1.76c1.65-2.65,1.85-5.15,1.85-8.76-9.25-1.73-12.52-8.62-13.48-15l0-.3a34.29,34.29,0,0,1,.32-10.87h.2c5.74,0,10.87,3,13.53,5l.46-.19,0-.06.45-.17L112,76.1,112,76c-2.82-2-8.49-5.45-14.85-5.23h-.36l-.08.33a35,35,0,0,0-.37,11.74V83a17.5,17.5,0,0,0-4.1,26.22,21.5,21.5,0,0,1,5.28-42.33h0a21.58,21.58,0,0,1,3.33.26,13,13,0,0,0,6.38-.44A15.38,15.38,0,0,0,117.4,52.25a15.74,15.74,0,0,0-.13-2,14.83,14.83,0,0,0-13.52-13c-1.09-.13-2.19-.22-3.3-.28s-2-.09-2.94-.09A51.39,51.39,0,1,0,148.9,88.34,52.2,52.2,0,0,0,148.52,82.05Z"/><path class="cls-1" d="M124.07,88.34c-1-3.44-1.44-13.6-1.66-17.51-1.59,2-4.72,2.64-8.32,3.84-1,.32-2,.69-3,1.13-.14.06-.41.25-.55.31a30.85,30.85,0,0,1,4.1,6.76c2.24,5.69.65,9-.26,11.17-1-3.79-4.31-7.6-8.87-10.68,7.27,6.81,7.93,14,6.48,19.9-.08.35-.18.68-.28,1,0,.06,0,.13,0,.2a30.58,30.58,0,0,1-6.15,10.86,29.38,29.38,0,0,0,9.35-2.71,18.71,18.71,0,0,0,4-2.64l.13-.12a31.82,31.82,0,0,0,2.94-3.41l0,0C126.75,99,124.34,89.75,124.07,88.34Z"/><path class="cls-1" d="M204,39.61h0a2.59,2.59,0,0,1-2.51,2.66h-18v16.9h14a2.67,2.67,0,0,1,2.66,2.66h0a2.67,2.67,0,0,1-2.66,2.67h-14V84a3.08,3.08,0,0,1-3.08,3.08h0A3.08,3.08,0,0,1,177.28,84V37h24.18A2.59,2.59,0,0,1,204,39.61Z"/><path class="cls-1" d="M244.1,53V84a3,3,0,0,1-3,3h0a3,3,0,0,1-3-3v-2.9a11.79,11.79,0,0,1-4.84,4.37,14.91,14.91,0,0,1-6.85,1.57,16.36,16.36,0,0,1-7.67-1.77A12.86,12.86,0,0,1,213.29,80a17.48,17.48,0,0,1-2-8.61V53a3,3,0,0,1,3-3h0a3,3,0,0,1,3,3V70.59c0,3.6.91,6.38,2.74,8.31a9.77,9.77,0,0,0,7.48,2.91,10,10,0,0,0,7.67-3c1.87-2,2.81-4.92,2.81-8.74V53a3,3,0,0,1,3-3h0A3,3,0,0,1,244.1,53Z"/><path class="cls-1" d="M298.67,58.74a16.16,16.16,0,0,1,6.13-6.45,16.91,16.91,0,0,1,8.75-2.3,16.28,16.28,0,0,1,7.8,1.94,14,14,0,0,1,5.5,5.08V40a3,3,0,0,1,3-3h0a3,3,0,0,1,3,3V84.07a3,3,0,0,1-3,3h0a3,3,0,0,1-3-3V79.74A14,14,0,0,1,321.61,85a15.69,15.69,0,0,1-8.13,2.06,16.35,16.35,0,0,1-14.81-9,20.63,20.63,0,0,1-2.22-9.69A20.26,20.26,0,0,1,298.67,58.74Zm26.54,2.65a11.72,11.72,0,0,0-4.42-4.62,12.16,12.16,0,0,0-6.13-1.6,12,12,0,0,0-6.09,1.57,11.38,11.38,0,0,0-4.39,4.59,14.52,14.52,0,0,0-1.64,7.08,14.83,14.83,0,0,0,1.64,7.17,11.54,11.54,0,0,0,4.39,4.65,11.85,11.85,0,0,0,6.09,1.61,12.07,12.07,0,0,0,6.13-1.61,11.54,11.54,0,0,0,4.42-4.65,14.81,14.81,0,0,0,1.64-7.11A14.63,14.63,0,0,0,325.21,61.39Z"/><path class="cls-1" d="M344.49,58.73a16.17,16.17,0,0,1,6.12-6.44A16.72,16.72,0,0,1,359.28,50a16,16,0,0,1,8.18,2,13.55,13.55,0,0,1,5.17,5.1V53a3,3,0,0,1,3-3h0a3,3,0,0,1,3,3v31.1a3,3,0,0,1-3,3h0a3,3,0,0,1-3-3V79.78a14.07,14.07,0,0,1-5.27,5.2A15.79,15.79,0,0,1,359.21,87a16.29,16.29,0,0,1-8.64-2.35,16.51,16.51,0,0,1-6.08-6.62,20.47,20.47,0,0,1-2.23-9.68A20.11,20.11,0,0,1,344.49,58.73ZM371,61.38a11.56,11.56,0,0,0-4.42-4.61,12.53,12.53,0,0,0-12.2,0A11.41,11.41,0,0,0,350,61.32a14.59,14.59,0,0,0-1.63,7.07A14.94,14.94,0,0,0,350,75.56a11.64,11.64,0,0,0,4.39,4.64,11.84,11.84,0,0,0,6.09,1.6,12,12,0,0,0,6.11-1.6A11.51,11.51,0,0,0,371,75.56a14.81,14.81,0,0,0,1.64-7.11A14.62,14.62,0,0,0,371,61.38Z"/><path class="cls-1" d="M390.21,58.72a16,16,0,0,1,6.2-6.46,19.67,19.67,0,0,1,20,.91,14.56,14.56,0,0,1,3.93,4.45,3,3,0,0,1-2.64,4.47h0A2.94,2.94,0,0,1,415,60.43a9.07,9.07,0,0,0-3-3.52,11,11,0,0,0-6.59-1.9,10.57,10.57,0,0,0-8.26,3.51q-3.15,3.51-3.15,9.94t3.15,10A10.52,10.52,0,0,0,405.49,82a11.2,11.2,0,0,0,6.56-1.83,9,9,0,0,0,3-3.61A2.88,2.88,0,0,1,417.67,75h0a3,3,0,0,1,2.58,4.44,15.64,15.64,0,0,1-3.94,4.38,17.26,17.26,0,0,1-10.82,3.31,17.78,17.78,0,0,1-9.08-2.29,15.93,15.93,0,0,1-6.2-6.5A20.61,20.61,0,0,1,388,68.46,20.27,20.27,0,0,1,390.21,58.72Z"/><path class="cls-1" d="M431,44.13A4.2,4.2,0,0,1,434,37a3.88,3.88,0,0,1,2.88,1.22,4.33,4.33,0,0,1,0,6A3.88,3.88,0,0,1,434,45.35,4.08,4.08,0,0,1,431,44.13ZM433.92,50A3.08,3.08,0,0,1,437,53V84a3.08,3.08,0,0,1-3.08,3.08h0A3.08,3.08,0,0,1,430.84,84V53A3.08,3.08,0,0,1,433.92,50Z"/><path class="cls-1" d="M454.53,84.78a16.37,16.37,0,0,1-6.45-6.54,20.15,20.15,0,0,1-2.33-9.83,19.49,19.49,0,0,1,2.4-9.77,16.51,16.51,0,0,1,6.54-6.51,20.08,20.08,0,0,1,18.55,0,16.56,16.56,0,0,1,6.54,6.48,19.42,19.42,0,0,1,2.4,9.8,19.16,19.16,0,0,1-2.47,9.83A17,17,0,0,1,473,84.78a19.09,19.09,0,0,1-9.34,2.3A18.39,18.39,0,0,1,454.53,84.78Zm15.22-4.47a11.46,11.46,0,0,0,4.57-4.54,14.52,14.52,0,0,0,1.74-7.36,14.87,14.87,0,0,0-1.7-7.37,11.21,11.21,0,0,0-4.48-4.5,12.83,12.83,0,0,0-12,0,10.73,10.73,0,0,0-4.37,4.5,15.2,15.2,0,0,0-1.65,7.37,15.6,15.6,0,0,0,1.62,7.43,10.64,10.64,0,0,0,4.3,4.5,12.07,12.07,0,0,0,5.92,1.48A12.59,12.59,0,0,0,469.75,80.31Zm.66-42.84a7.82,7.82,0,0,1-4.12,6.88l-9.89,5.29h0a7.8,7.8,0,0,1,3.86-6.73l10.15-6Z"/><path class="cls-1" d="M520,53.71c2.75,2.69,4.13,6.55,4.13,11.61V83.81a3,3,0,0,1-3,3h0a3,3,0,0,1-3-3V66.18q0-5.45-2.73-8.34a9.75,9.75,0,0,0-7.45-2.9,10,10,0,0,0-7.62,3c-1.88,2-2.83,4.9-2.83,8.71V83.81a3,3,0,0,1-3,3h-.07a3,3,0,0,1-3-3V52.71a3,3,0,0,1,3-3h0a3,3,0,0,1,3,3v2.83a12.06,12.06,0,0,1,4.89-4.32,15.21,15.21,0,0,1,6.82-1.53A14.78,14.78,0,0,1,520,53.71Z"/><path class="cls-1" d="M179.55,116a14.52,14.52,0,0,1,5.58-5.58,15.86,15.86,0,0,1,7.93-2,15.59,15.59,0,0,1,9,2.64,13.55,13.55,0,0,1,2.48,2.16,3.12,3.12,0,0,1-2.41,5.13h0a3,3,0,0,1-2.46-1.23,7.05,7.05,0,0,0-2.25-2.07A8.69,8.69,0,0,0,193,114a9,9,0,0,0-4.77,1.25,8.45,8.45,0,0,0-3.25,3.54,12.89,12.89,0,0,0,0,10.69,8.44,8.44,0,0,0,3.25,3.56,9.13,9.13,0,0,0,4.77,1.25,8.51,8.51,0,0,0,4.41-1.12,7.05,7.05,0,0,0,2.24-2.08,3.06,3.06,0,0,1,2.48-1.24h0a3.14,3.14,0,0,1,2.43,5.15,13.66,13.66,0,0,1-2.49,2.17,16.83,16.83,0,0,1-17,.61,14.58,14.58,0,0,1-5.58-5.55,17.08,17.08,0,0,1,0-16.19Z"/><path class="cls-1" d="M237.21,138.11a15.36,15.36,0,0,1-5.81-5.7,16.81,16.81,0,0,1,0-16.45,15.46,15.46,0,0,1,5.81-5.71,16.87,16.87,0,0,1,16.12,0A15.28,15.28,0,0,1,259.1,116a17,17,0,0,1,0,16.45,15.17,15.17,0,0,1-5.79,5.7,16.76,16.76,0,0,1-16.1,0Zm13-4.8a8.85,8.85,0,0,0,3.35-3.65,13.06,13.06,0,0,0,0-11,8.71,8.71,0,0,0-3.35-3.6,10.53,10.53,0,0,0-9.95,0,8.65,8.65,0,0,0-3.38,3.6,13.06,13.06,0,0,0,0,11,8.78,8.78,0,0,0,3.38,3.65,10.38,10.38,0,0,0,9.95,0Z"/><path class="cls-1" d="M307.3,139.73h0a4.06,4.06,0,0,1-3.4-1.82l-13-19.64V136.6a3.13,3.13,0,0,1-3.14,3.13h0a3.13,3.13,0,0,1-3.13-3.13V112.49a4.08,4.08,0,0,1,4.08-4.08h0a4.09,4.09,0,0,1,3.4,1.83l13,19.68V111.55a3.14,3.14,0,0,1,3.13-3.14h0a3.14,3.14,0,0,1,3.14,3.14v24.1A4.08,4.08,0,0,1,307.3,139.73Z"/><path class="cls-1" d="M392.33,112.62l-8.67,23.64a5.49,5.49,0,0,1-5.15,3.6h0a5.5,5.5,0,0,1-5.15-3.6l-8.67-23.64a3.13,3.13,0,0,1,2.94-4.21h.05a3.14,3.14,0,0,1,3,2.11l7.92,22.89,7.88-22.89a3.12,3.12,0,0,1,2.95-2.11h0A3.13,3.13,0,0,1,392.33,112.62Z"/><path class="cls-1" d="M422.58,111.56V136.7a3.16,3.16,0,0,1-3.15,3.16h0a3.16,3.16,0,0,1-3.16-3.16V111.56a3.15,3.15,0,0,1,3.16-3.15h0A3.15,3.15,0,0,1,422.58,111.56Z"/><path class="cls-1" d="M467.12,110.35a13.92,13.92,0,0,1,5.81,5.51,16.55,16.55,0,0,1,2.05,8.32,16.28,16.28,0,0,1-2.05,8.27,14,14,0,0,1-5.81,5.47,18.83,18.83,0,0,1-8.72,1.94h-8.25a2.75,2.75,0,0,1-2.75-2.75v-26a2.75,2.75,0,0,1,2.75-2.75h8.25A18.83,18.83,0,0,1,467.12,110.35Zm-1.29,21.44q2.7-2.7,2.7-7.61t-2.7-7.68q-2.7-2.77-7.66-2.77h-4.46V134.5h4.46C461.48,134.5,464,133.59,465.83,131.79Z"/><path class="cls-1" d="M514.66,133.87h-8.43a2.85,2.85,0,0,0-2.7,1.93l-.69,2a3.09,3.09,0,0,1-2.92,2.09h0a3.1,3.1,0,0,1-2.92-4.15l8.56-23.85a5.22,5.22,0,0,1,4.91-3.45h0a5.2,5.2,0,0,1,4.9,3.45l8.57,23.85a3.11,3.11,0,0,1-2.92,4.15h0a3.09,3.09,0,0,1-2.93-2.09l-.69-2A2.84,2.84,0,0,0,514.66,133.87Zm-.35-7-3.29-9.5a.61.61,0,0,0-1.15,0l-3.29,9.5a1.5,1.5,0,0,0,1.41,2h4.91A1.5,1.5,0,0,0,514.31,126.86Z"/><polygon class="cls-1" points="261.13 52.99 261.13 52.98 261.13 52.99 261.13 52.99"/><path class="cls-1" d="M283.61,54a14.78,14.78,0,0,0-10.77-4A15.15,15.15,0,0,0,266,51.49a12.06,12.06,0,0,0-4.89,4.32V53h0a3,3,0,0,0-6,0V84.05a3,3,0,1,0,6,0V66.92c0-3.81.94-6.72,2.83-8.71a10,10,0,0,1,7.61-3,9.73,9.73,0,0,1,7.45,2.9q2.73,2.89,2.73,8.35V84.09a3,3,0,0,0,3,3h0a3,3,0,0,0,3-3V65.59Q287.74,58,283.61,54Z"/></svg>