<svg id="Capa_1" data-name="Capa 1" xmlns="http://www.w3.org/2000/svg" viewBox="0 0 570.24 177.12"><path d="M148.52,82.05a4.26,4.26,0,0,0-8.47,1,42.87,42.87,0,1,1-52.16-36.5,43.26,43.26,0,0,1,9.62-1.08c1.1,0,2.19.05,3.28.13a18.17,18.17,0,0,1,2.21.22,6.62,6.62,0,0,1,5.85,5.86,5.42,5.42,0,0,1,0,.57v.63a6.1,6.1,0,0,1-6.76,5.36l-.24,0a29.5,29.5,0,0,0-3.51-.3h-.86A30.44,30.44,0,0,0,67.06,88.35q0,.93.06,1.86A30.45,30.45,0,0,0,113,114.58h0a30.43,30.43,0,0,0,5.92-4.56,19.09,19.09,0,0,1-3.44,2.33l1-3-1.18.5,6-8.2-10.78,6.25a26.71,26.71,0,0,0,1.28-3.36l-.42.34a21.85,21.85,0,0,1-2.41,1.76c1.65-2.65,1.85-5.15,1.85-8.76-9.25-1.73-12.52-8.62-13.48-15v-.3a34.47,34.47,0,0,1,.32-10.87h.2c5.74,0,10.87,3,13.53,5l.46-.19v-.06l.45-.17-.3-.19V76c-2.82-2-8.49-5.45-14.85-5.23h-.36l-.08.33a35.06,35.06,0,0,0-.37,11.74V83a17.51,17.51,0,0,0-5.65,24.1,17.69,17.69,0,0,0,1.55,2.12,21.5,21.5,0,0,1,5.28-42.33h0a21.77,21.77,0,0,1,3.33.26,12.91,12.91,0,0,0,6.38-.44A15.38,15.38,0,0,0,117.4,52.25a15,15,0,0,0-13.65-15c-1.09-.13-2.19-.22-3.3-.28s-2-.09-2.94-.09A51.39,51.39,0,1,0,148.9,88.34,53,53,0,0,0,148.52,82.05Z"/><path d="M124.07,88.34c-1-3.44-1.44-13.6-1.66-17.51-1.59,2-4.72,2.64-8.32,3.84a30.52,30.52,0,0,0-3,1.13c-.14.06-.41.25-.55.31a30.88,30.88,0,0,1,4.1,6.76A12.86,12.86,0,0,1,114.38,94c-1-3.79-4.31-7.6-8.87-10.68,7.27,6.81,7.93,14,6.48,19.9-.08.35-.18.68-.28,1v.2a30.68,30.68,0,0,1-6.15,10.86,29.31,29.31,0,0,0,9.35-2.71,18.36,18.36,0,0,0,4-2.64l.13-.12a32.83,32.83,0,0,0,2.94-3.41h0C126.75,99,124.34,89.75,124.07,88.34Z"/><path d="M204,39.61h0a2.58,2.58,0,0,1-2.51,2.66h-18v16.9h14a2.67,2.67,0,0,1,2.66,2.66h0a2.67,2.67,0,0,1-2.66,2.67h-14V84a3.08,3.08,0,0,1-3.08,3.08h0a3.08,3.08,0,0,1-3.13-3V37h24.18A2.59,2.59,0,0,1,204,39.61Z"/><path d="M244.1,53V84a3,3,0,0,1-3,3h0a3,3,0,0,1-3-3V81.1a11.8,11.8,0,0,1-4.84,4.37A14.93,14.93,0,0,1,226.41,87a16.34,16.34,0,0,1-7.67-1.77A12.94,12.94,0,0,1,213.29,80a17.54,17.54,0,0,1-2-8.61V53a3,3,0,0,1,3-3h0a3,3,0,0,1,3,3V70.59c0,3.6.91,6.38,2.74,8.31a9.74,9.74,0,0,0,7.48,2.91,10,10,0,0,0,7.67-3c1.87-2,2.81-4.92,2.81-8.74V53a3,3,0,0,1,3-3h0a3,3,0,0,1,3.11,2.89Z"/><path d="M298.67,58.74a16.12,16.12,0,0,1,6.13-6.45,16.9,16.9,0,0,1,8.75-2.3,16.22,16.22,0,0,1,7.8,1.94,14,14,0,0,1,5.5,5.08V40a3,3,0,0,1,3-3h0a3,3,0,0,1,3,3V84.07a3,3,0,0,1-3,3h0a3,3,0,0,1-3-3V79.74A14,14,0,0,1,321.61,85a15.73,15.73,0,0,1-8.13,2.06,16.36,16.36,0,0,1-14.81-9,20.63,20.63,0,0,1-2.22-9.69A20.28,20.28,0,0,1,298.67,58.74Zm26.54,2.65a11.76,11.76,0,0,0-4.42-4.62,12.1,12.1,0,0,0-6.13-1.6,11.93,11.93,0,0,0-6.09,1.57,11.35,11.35,0,0,0-4.39,4.59,14.52,14.52,0,0,0-1.64,7.08,14.87,14.87,0,0,0,1.64,7.17,11.63,11.63,0,0,0,4.39,4.65,11.84,11.84,0,0,0,6.09,1.61,12.08,12.08,0,0,0,6.13-1.61,11.51,11.51,0,0,0,4.42-4.65,14.89,14.89,0,0,0,1.64-7.11,14.63,14.63,0,0,0-1.64-7.08Z"/><path d="M344.49,58.73a16.14,16.14,0,0,1,6.12-6.44A16.73,16.73,0,0,1,359.28,50a15.9,15.9,0,0,1,8.18,2,13.54,13.54,0,0,1,5.17,5.1V53a3,3,0,0,1,3-3h0a3,3,0,0,1,3,3V84.1a3,3,0,0,1-3,3h0a3,3,0,0,1-3-3V79.78a14.07,14.07,0,0,1-5.27,5.2,15.79,15.79,0,0,1-8.15,2,16.32,16.32,0,0,1-8.64-2.35A16.51,16.51,0,0,1,344.49,78a20.45,20.45,0,0,1-2.23-9.68A20.1,20.1,0,0,1,344.49,58.73ZM371,61.38a11.53,11.53,0,0,0-4.42-4.61,12.55,12.55,0,0,0-12.2,0A11.35,11.35,0,0,0,350,61.32a14.58,14.58,0,0,0-1.63,7.07A15,15,0,0,0,350,75.56a11.6,11.6,0,0,0,4.39,4.64,11.83,11.83,0,0,0,6.09,1.6,12,12,0,0,0,6.11-1.6A11.52,11.52,0,0,0,371,75.56a14.89,14.89,0,0,0,1.64-7.11A14.59,14.59,0,0,0,371,61.38Z"/><path d="M390.21,58.72a16,16,0,0,1,6.2-6.46,19.65,19.65,0,0,1,20,.91,14.57,14.57,0,0,1,3.93,4.45,3,3,0,0,1-1.14,4.09,3.15,3.15,0,0,1-1.5.38h0a2.94,2.94,0,0,1-2.7-1.66,9,9,0,0,0-3-3.52,11,11,0,0,0-6.59-1.9,10.55,10.55,0,0,0-8.26,3.51Q394,62,394,68.46t3.15,10A10.51,10.51,0,0,0,405.49,82a11.14,11.14,0,0,0,6.56-1.83,9,9,0,0,0,3-3.61A2.88,2.88,0,0,1,417.67,75h0a3,3,0,0,1,2.95,3,3.07,3.07,0,0,1-.37,1.39,15.55,15.55,0,0,1-3.94,4.38,17.26,17.26,0,0,1-10.82,3.31,17.81,17.81,0,0,1-9.08-2.29,15.91,15.91,0,0,1-6.2-6.5A20.52,20.52,0,0,1,388,68.46,20.21,20.21,0,0,1,390.21,58.72Z"/><path d="M431,44.13A4.2,4.2,0,0,1,434,37a3.88,3.88,0,0,1,2.88,1.22,4.33,4.33,0,0,1,0,6A3.86,3.86,0,0,1,434,45.35,4.1,4.1,0,0,1,431,44.13ZM433.92,50A3.08,3.08,0,0,1,437,53V84a3.08,3.08,0,0,1-3.08,3.08h0A3.08,3.08,0,0,1,430.84,84h0V53A3.08,3.08,0,0,1,433.92,50Z"/><path d="M454.53,84.78a16.37,16.37,0,0,1-6.45-6.54,20.16,20.16,0,0,1-2.33-9.83,19.49,19.49,0,0,1,2.4-9.77,16.51,16.51,0,0,1,6.54-6.51,20.06,20.06,0,0,1,18.55,0,16.57,16.57,0,0,1,6.54,6.48,19.39,19.39,0,0,1,2.4,9.8,19.22,19.22,0,0,1-2.47,9.83A17,17,0,0,1,473,84.78a19.15,19.15,0,0,1-9.34,2.3A18.33,18.33,0,0,1,454.53,84.78Zm15.22-4.47a11.47,11.47,0,0,0,4.57-4.54,14.54,14.54,0,0,0,1.74-7.36,14.88,14.88,0,0,0-1.7-7.37,11.22,11.22,0,0,0-4.48-4.5,12.81,12.81,0,0,0-12,0,10.77,10.77,0,0,0-4.37,4.5,15.19,15.19,0,0,0-1.65,7.37,15.69,15.69,0,0,0,1.62,7.43,10.61,10.61,0,0,0,4.3,4.5,12.1,12.1,0,0,0,5.92,1.48A12.65,12.65,0,0,0,469.75,80.31Zm.66-42.84a7.82,7.82,0,0,1-4.12,6.88l-9.89,5.29h0a7.8,7.8,0,0,1,3.86-6.73l10.15-6Z"/><path d="M520,53.71c2.75,2.69,4.13,6.55,4.13,11.61V83.81a3,3,0,0,1-3,3h0a3,3,0,0,1-3-3V66.18q0-5.45-2.73-8.34a9.75,9.75,0,0,0-7.45-2.9,10,10,0,0,0-7.62,3c-1.88,2-2.83,4.9-2.83,8.71V83.81a3,3,0,0,1-3,3h-.07a3,3,0,0,1-3-3V52.71a3,3,0,0,1,3-3h0a3,3,0,0,1,3,3v2.83a12,12,0,0,1,4.89-4.32,15.19,15.19,0,0,1,6.82-1.53A14.79,14.79,0,0,1,520,53.71Z"/><path d="M179.55,116a14.52,14.52,0,0,1,5.58-5.58,15.82,15.82,0,0,1,7.93-2,15.65,15.65,0,0,1,9,2.64,13.79,13.79,0,0,1,2.48,2.16,3.12,3.12,0,0,1-.38,4.4,3.07,3.07,0,0,1-2,.73h0a3,3,0,0,1-2.46-1.23,7.07,7.07,0,0,0-2.25-2.07,8.62,8.62,0,0,0-4.42-1,9,9,0,0,0-4.77,1.25,8.48,8.48,0,0,0-3.25,3.54,12.87,12.87,0,0,0,0,10.69,8.4,8.4,0,0,0,3.25,3.56,9.11,9.11,0,0,0,4.77,1.25,8.52,8.52,0,0,0,4.41-1.12,7.07,7.07,0,0,0,2.24-2.08,3,3,0,0,1,2.48-1.24h0a3.15,3.15,0,0,1,3.16,3.12,3.2,3.2,0,0,1-.73,2,13.9,13.9,0,0,1-2.49,2.17,16.83,16.83,0,0,1-17,.61,14.58,14.58,0,0,1-5.58-5.55,17.08,17.08,0,0,1,0-16.19Z"/><path d="M237.21,138.11a15.36,15.36,0,0,1-5.81-5.7,16.79,16.79,0,0,1,0-16.45,15.46,15.46,0,0,1,5.81-5.71,16.89,16.89,0,0,1,16.12,0A15.31,15.31,0,0,1,259.1,116a17,17,0,0,1,0,16.45,15.24,15.24,0,0,1-5.79,5.7,16.74,16.74,0,0,1-16.1,0Zm13-4.8a8.87,8.87,0,0,0,3.35-3.65,13.06,13.06,0,0,0,0-11,8.68,8.68,0,0,0-3.35-3.6,10.51,10.51,0,0,0-10,0,8.69,8.69,0,0,0-3.38,3.6,13.06,13.06,0,0,0,0,11,8.81,8.81,0,0,0,3.38,3.65A10.4,10.4,0,0,0,250.21,133.31Z"/><path d="M307.3,139.73h0a4.06,4.06,0,0,1-3.4-1.82l-13-19.64V136.6a3.13,3.13,0,0,1-3.13,3.13h0a3.13,3.13,0,0,1-3.13-3.13h0V112.49a4.08,4.08,0,0,1,4.08-4.08h0a4.09,4.09,0,0,1,3.4,1.83l13,19.68V111.55a3.14,3.14,0,0,1,3.13-3.14h0a3.15,3.15,0,0,1,3.14,3.14h0v24.1A4.08,4.08,0,0,1,307.3,139.73Z"/><path d="M392.33,112.62l-8.67,23.64a5.49,5.49,0,0,1-5.15,3.6h0a5.49,5.49,0,0,1-5.15-3.6l-8.67-23.64a3.14,3.14,0,0,1,1.86-4,3,3,0,0,1,1.08-.19h.05a3.15,3.15,0,0,1,3,2.11l7.92,22.89,7.88-22.89a3.12,3.12,0,0,1,2.95-2.11h0a3.13,3.13,0,0,1,3.09,3.17A3.09,3.09,0,0,1,392.33,112.62Z"/><path d="M422.58,111.56V136.7a3.16,3.16,0,0,1-3.15,3.16h0a3.15,3.15,0,0,1-3.16-3.16h0V111.56a3.15,3.15,0,0,1,3.15-3.15h0A3.15,3.15,0,0,1,422.58,111.56Z"/><path d="M467.12,110.35a14,14,0,0,1,5.81,5.51,16.56,16.56,0,0,1,2.05,8.32,16.27,16.27,0,0,1-2.05,8.27,14,14,0,0,1-5.81,5.47,18.82,18.82,0,0,1-8.72,1.94h-8.25a2.75,2.75,0,0,1-2.75-2.75v-26a2.75,2.75,0,0,1,2.75-2.75h8.25A18.84,18.84,0,0,1,467.12,110.35Zm-1.29,21.44q2.7-2.7,2.7-7.61a10.55,10.55,0,0,0-2.7-7.68q-2.7-2.77-7.66-2.77h-4.46V134.5h4.46C461.48,134.5,464,133.59,465.83,131.79Z"/><path d="M514.66,133.87h-8.43a2.84,2.84,0,0,0-2.7,1.93l-.69,2a3.09,3.09,0,0,1-2.92,2.09h0a3.1,3.1,0,0,1-3.1-3.1,3.13,3.13,0,0,1,.18-1l8.56-23.85a5.22,5.22,0,0,1,4.91-3.45h0a5.2,5.2,0,0,1,4.9,3.45l8.57,23.85a3.11,3.11,0,0,1-1.89,4,3,3,0,0,1-1,.18h0a3.1,3.1,0,0,1-2.93-2.09l-.69-2A2.84,2.84,0,0,0,514.66,133.87Zm-.35-7-3.29-9.5a.61.61,0,0,0-.78-.37.62.62,0,0,0-.37.37l-3.29,9.5a1.49,1.49,0,0,0,.91,1.91,1.43,1.43,0,0,0,.5.09h4.91a1.5,1.5,0,0,0,1.5-1.5,1.48,1.48,0,0,0-.09-.51Z"/><path d="M283.61,54a14.8,14.8,0,0,0-10.77-4A15.23,15.23,0,0,0,266,51.49a12,12,0,0,0-4.89,4.32V53h0a3,3,0,0,0-6,0V84.05a3,3,0,1,0,6,0V66.92c0-3.81.94-6.72,2.83-8.71a10,10,0,0,1,7.61-3,9.71,9.71,0,0,1,7.45,2.9q2.73,2.89,2.73,8.35V84.09a3,3,0,0,0,3,3h0a3,3,0,0,0,3-3V65.59Q287.75,58,283.61,54Z"/></svg>